<mxfile host="app.diagrams.net" modified="2023-09-05T05:59:05.799Z" agent="Mozilla/5.0 (Windows NT 10.0; Win64; x64) AppleWebKit/537.36 (KHTML, like Gecko) Chrome/116.0.0.0 Safari/537.36" etag="rSWzcVvjXml5fWWVfvCq" version="21.7.2" type="github">
  <diagram id="C5RBs43oDa-KdzZeNtuy" name="Page-1">
    <mxGraphModel dx="1802" dy="854" grid="1" gridSize="10" guides="1" tooltips="1" connect="1" arrows="1" fold="1" page="1" pageScale="1" pageWidth="827" pageHeight="1169" math="0" shadow="0">
      <root>
        <mxCell id="WIyWlLk6GJQsqaUBKTNV-0" />
        <mxCell id="WIyWlLk6GJQsqaUBKTNV-1" parent="WIyWlLk6GJQsqaUBKTNV-0" />
        <mxCell id="WIyWlLk6GJQsqaUBKTNV-2" value="" style="rounded=0;html=1;jettySize=auto;orthogonalLoop=1;fontSize=11;endArrow=block;endFill=0;endSize=8;strokeWidth=1;shadow=0;labelBackgroundColor=none;edgeStyle=orthogonalEdgeStyle;" parent="WIyWlLk6GJQsqaUBKTNV-1" source="WIyWlLk6GJQsqaUBKTNV-3" target="WIyWlLk6GJQsqaUBKTNV-6" edge="1">
          <mxGeometry relative="1" as="geometry" />
        </mxCell>
        <mxCell id="WIyWlLk6GJQsqaUBKTNV-3" value="当事人&lt;br&gt;去公司所注册区的劳动仲裁院提起 仲裁申请" style="rounded=1;whiteSpace=wrap;html=1;fontSize=12;glass=0;strokeWidth=1;shadow=0;" parent="WIyWlLk6GJQsqaUBKTNV-1" vertex="1">
          <mxGeometry x="155" y="70" width="125" height="50" as="geometry" />
        </mxCell>
        <mxCell id="mZqY9pv6k2UXkb8xHDxB-16" style="edgeStyle=orthogonalEdgeStyle;rounded=0;orthogonalLoop=1;jettySize=auto;html=1;entryX=0.5;entryY=0;entryDx=0;entryDy=0;" edge="1" parent="WIyWlLk6GJQsqaUBKTNV-1" source="WIyWlLk6GJQsqaUBKTNV-6">
          <mxGeometry relative="1" as="geometry">
            <mxPoint x="217.5" y="370" as="targetPoint" />
          </mxGeometry>
        </mxCell>
        <mxCell id="mZqY9pv6k2UXkb8xHDxB-22" value="是" style="edgeLabel;html=1;align=center;verticalAlign=middle;resizable=0;points=[];" vertex="1" connectable="0" parent="mZqY9pv6k2UXkb8xHDxB-16">
          <mxGeometry x="-0.0857" relative="1" as="geometry">
            <mxPoint as="offset" />
          </mxGeometry>
        </mxCell>
        <mxCell id="mZqY9pv6k2UXkb8xHDxB-20" style="edgeStyle=orthogonalEdgeStyle;rounded=0;orthogonalLoop=1;jettySize=auto;html=1;exitX=1;exitY=0.5;exitDx=0;exitDy=0;entryX=0;entryY=0.5;entryDx=0;entryDy=0;" edge="1" parent="WIyWlLk6GJQsqaUBKTNV-1" source="WIyWlLk6GJQsqaUBKTNV-6">
          <mxGeometry relative="1" as="geometry">
            <mxPoint x="400" y="245" as="targetPoint" />
          </mxGeometry>
        </mxCell>
        <mxCell id="mZqY9pv6k2UXkb8xHDxB-21" value="否" style="edgeLabel;html=1;align=center;verticalAlign=middle;resizable=0;points=[];" vertex="1" connectable="0" parent="mZqY9pv6k2UXkb8xHDxB-20">
          <mxGeometry x="-0.4291" y="4" relative="1" as="geometry">
            <mxPoint as="offset" />
          </mxGeometry>
        </mxCell>
        <mxCell id="WIyWlLk6GJQsqaUBKTNV-6" value="仲裁委员会&lt;br&gt;收到仲裁申请书之日起，&lt;br style=&quot;border-color: var(--border-color); font-size: 11px;&quot;&gt;&lt;span style=&quot;font-size: 11px; background-color: rgb(255, 255, 255);&quot;&gt;5日内决定（立案）受理&lt;/span&gt;" style="rhombus;whiteSpace=wrap;html=1;shadow=0;fontFamily=Helvetica;fontSize=12;align=center;strokeWidth=1;spacing=6;spacingTop=-4;" parent="WIyWlLk6GJQsqaUBKTNV-1" vertex="1">
          <mxGeometry x="112.81" y="190" width="209.38" height="110" as="geometry" />
        </mxCell>
        <mxCell id="WIyWlLk6GJQsqaUBKTNV-7" value="若不服则&lt;br&gt;向法院提起诉讼" style="rounded=1;whiteSpace=wrap;html=1;fontSize=12;glass=0;strokeWidth=1;shadow=0;" parent="WIyWlLk6GJQsqaUBKTNV-1" vertex="1">
          <mxGeometry x="400" y="225" width="120" height="40" as="geometry" />
        </mxCell>
        <mxCell id="mZqY9pv6k2UXkb8xHDxB-11" style="edgeStyle=orthogonalEdgeStyle;rounded=0;orthogonalLoop=1;jettySize=auto;html=1;entryX=0.5;entryY=0;entryDx=0;entryDy=0;" edge="1" parent="WIyWlLk6GJQsqaUBKTNV-1" source="WIyWlLk6GJQsqaUBKTNV-11" target="mZqY9pv6k2UXkb8xHDxB-13">
          <mxGeometry relative="1" as="geometry">
            <mxPoint x="238" y="810" as="targetPoint" />
          </mxGeometry>
        </mxCell>
        <mxCell id="WIyWlLk6GJQsqaUBKTNV-11" value="是否符合立案条件" style="rounded=1;whiteSpace=wrap;html=1;fontSize=12;glass=0;strokeWidth=1;shadow=0;" parent="WIyWlLk6GJQsqaUBKTNV-1" vertex="1">
          <mxGeometry x="175" y="800" width="120" height="40" as="geometry" />
        </mxCell>
        <mxCell id="mZqY9pv6k2UXkb8xHDxB-7" value="法律依据：《劳动争议调解仲裁法》第二十九条，劳动争议仲裁委员会收到仲裁申请之日起五日内，认为符合受理条件的，应当受理，并通知申请人；认为不符合受理条件的，应当书面通知申请人不予受理，并说明理由。对劳动争议仲裁委员会不予受理或者逾期未作出决定的，申请人可以就该劳动争议事项向人民法院提起诉讼。" style="whiteSpace=wrap;html=1;align=left;" vertex="1" parent="WIyWlLk6GJQsqaUBKTNV-1">
          <mxGeometry x="60" y="1000" width="760" height="90" as="geometry" />
        </mxCell>
        <mxCell id="mZqY9pv6k2UXkb8xHDxB-9" value="&lt;div style=&quot;border-color: var(--border-color);&quot;&gt;根据《企业劳动争议处理条例》第25条、《劳动争议仲裁委员会办案规则》第34条和39条规定，组成仲裁庭的时间有下列几种情况：&lt;/div&gt;&lt;div style=&quot;border-color: var(--border-color);&quot;&gt;&lt;span style=&quot;background-color: initial;&quot;&gt;(1) 对于职工一方在30人以下的劳动争议案件，应在立案之日起7日内按《仲裁委员会办案规则》组成仲裁庭。&lt;/span&gt;&lt;/div&gt;&lt;div style=&quot;border-color: var(--border-color);&quot;&gt;&lt;span style=&quot;background-color: initial;&quot;&gt;(2) 对职工一方在30人以上的集体劳动争议案件，应当在作出受理决定的同时，即自收到申请书之日起3日内组成特别仲裁庭。&lt;/span&gt;&lt;/div&gt;&lt;div style=&quot;border-color: var(--border-color);&quot;&gt;&lt;span style=&quot;background-color: initial;&quot;&gt;(3) 按照仲裁监督程序，对决定重新处理的争议，应从宣布原仲裁裁决无效之日起7日内另组成仲裁庭。&lt;/span&gt;&lt;/div&gt;" style="whiteSpace=wrap;html=1;align=left;" vertex="1" parent="WIyWlLk6GJQsqaUBKTNV-1">
          <mxGeometry x="60" y="1110" width="760" height="90" as="geometry" />
        </mxCell>
        <mxCell id="mZqY9pv6k2UXkb8xHDxB-13" value="立案之日起&lt;br style=&quot;border-color: var(--border-color);&quot;&gt;7日内组成仲裁庭" style="rounded=1;whiteSpace=wrap;html=1;" vertex="1" parent="WIyWlLk6GJQsqaUBKTNV-1">
          <mxGeometry x="175" y="930" width="120" height="60" as="geometry" />
        </mxCell>
        <mxCell id="mZqY9pv6k2UXkb8xHDxB-26" value="" style="edgeStyle=orthogonalEdgeStyle;rounded=0;orthogonalLoop=1;jettySize=auto;html=1;" edge="1" parent="WIyWlLk6GJQsqaUBKTNV-1" source="mZqY9pv6k2UXkb8xHDxB-24" target="mZqY9pv6k2UXkb8xHDxB-25">
          <mxGeometry relative="1" as="geometry" />
        </mxCell>
        <mxCell id="mZqY9pv6k2UXkb8xHDxB-28" value="调节成功" style="edgeLabel;html=1;align=center;verticalAlign=middle;resizable=0;points=[];" vertex="1" connectable="0" parent="mZqY9pv6k2UXkb8xHDxB-26">
          <mxGeometry x="-0.1853" y="2" relative="1" as="geometry">
            <mxPoint as="offset" />
          </mxGeometry>
        </mxCell>
        <mxCell id="mZqY9pv6k2UXkb8xHDxB-32" value="" style="edgeStyle=orthogonalEdgeStyle;rounded=0;orthogonalLoop=1;jettySize=auto;html=1;" edge="1" parent="WIyWlLk6GJQsqaUBKTNV-1" source="mZqY9pv6k2UXkb8xHDxB-24" target="mZqY9pv6k2UXkb8xHDxB-31">
          <mxGeometry relative="1" as="geometry" />
        </mxCell>
        <mxCell id="mZqY9pv6k2UXkb8xHDxB-33" value="调节失败" style="edgeLabel;html=1;align=center;verticalAlign=middle;resizable=0;points=[];" vertex="1" connectable="0" parent="mZqY9pv6k2UXkb8xHDxB-32">
          <mxGeometry x="-0.05" y="-2" relative="1" as="geometry">
            <mxPoint as="offset" />
          </mxGeometry>
        </mxCell>
        <mxCell id="mZqY9pv6k2UXkb8xHDxB-24" value="庭前调节" style="rounded=1;whiteSpace=wrap;html=1;" vertex="1" parent="WIyWlLk6GJQsqaUBKTNV-1">
          <mxGeometry x="157.5" y="370" width="120" height="30" as="geometry" />
        </mxCell>
        <mxCell id="mZqY9pv6k2UXkb8xHDxB-30" value="" style="edgeStyle=orthogonalEdgeStyle;rounded=0;orthogonalLoop=1;jettySize=auto;html=1;" edge="1" parent="WIyWlLk6GJQsqaUBKTNV-1" source="mZqY9pv6k2UXkb8xHDxB-25" target="mZqY9pv6k2UXkb8xHDxB-29">
          <mxGeometry relative="1" as="geometry" />
        </mxCell>
        <mxCell id="mZqY9pv6k2UXkb8xHDxB-25" value="制作调解书" style="whiteSpace=wrap;html=1;rounded=1;" vertex="1" parent="WIyWlLk6GJQsqaUBKTNV-1">
          <mxGeometry x="400" y="372.5" width="120" height="25" as="geometry" />
        </mxCell>
        <mxCell id="mZqY9pv6k2UXkb8xHDxB-29" value="送达和结案" style="whiteSpace=wrap;html=1;rounded=1;" vertex="1" parent="WIyWlLk6GJQsqaUBKTNV-1">
          <mxGeometry x="600" y="372.5" width="120" height="25" as="geometry" />
        </mxCell>
        <mxCell id="mZqY9pv6k2UXkb8xHDxB-35" value="" style="edgeStyle=orthogonalEdgeStyle;rounded=0;orthogonalLoop=1;jettySize=auto;html=1;" edge="1" parent="WIyWlLk6GJQsqaUBKTNV-1" source="mZqY9pv6k2UXkb8xHDxB-31" target="mZqY9pv6k2UXkb8xHDxB-34">
          <mxGeometry relative="1" as="geometry" />
        </mxCell>
        <mxCell id="mZqY9pv6k2UXkb8xHDxB-31" value="开庭受理" style="rounded=1;whiteSpace=wrap;html=1;" vertex="1" parent="WIyWlLk6GJQsqaUBKTNV-1">
          <mxGeometry x="157.5" y="480" width="120" height="30" as="geometry" />
        </mxCell>
        <mxCell id="mZqY9pv6k2UXkb8xHDxB-39" value="" style="edgeStyle=orthogonalEdgeStyle;rounded=0;orthogonalLoop=1;jettySize=auto;html=1;" edge="1" parent="WIyWlLk6GJQsqaUBKTNV-1" source="mZqY9pv6k2UXkb8xHDxB-34" target="mZqY9pv6k2UXkb8xHDxB-38">
          <mxGeometry relative="1" as="geometry" />
        </mxCell>
        <mxCell id="mZqY9pv6k2UXkb8xHDxB-41" value="" style="edgeStyle=orthogonalEdgeStyle;rounded=0;orthogonalLoop=1;jettySize=auto;html=1;" edge="1" parent="WIyWlLk6GJQsqaUBKTNV-1" source="mZqY9pv6k2UXkb8xHDxB-34" target="mZqY9pv6k2UXkb8xHDxB-40">
          <mxGeometry relative="1" as="geometry" />
        </mxCell>
        <mxCell id="mZqY9pv6k2UXkb8xHDxB-34" value="裁决" style="rounded=1;whiteSpace=wrap;html=1;" vertex="1" parent="WIyWlLk6GJQsqaUBKTNV-1">
          <mxGeometry x="157.5" y="590" width="120" height="30" as="geometry" />
        </mxCell>
        <mxCell id="mZqY9pv6k2UXkb8xHDxB-38" value="执行" style="rounded=1;whiteSpace=wrap;html=1;" vertex="1" parent="WIyWlLk6GJQsqaUBKTNV-1">
          <mxGeometry x="157.5" y="700" width="120" height="30" as="geometry" />
        </mxCell>
        <mxCell id="mZqY9pv6k2UXkb8xHDxB-40" value="撤销和起诉" style="rounded=1;whiteSpace=wrap;html=1;" vertex="1" parent="WIyWlLk6GJQsqaUBKTNV-1">
          <mxGeometry x="357.5" y="590" width="120" height="30" as="geometry" />
        </mxCell>
      </root>
    </mxGraphModel>
  </diagram>
</mxfile>
